<svg width="13" height="14" viewBox="0 0 13 14" fill="none" xmlns="http://www.w3.org/2000/svg">
<path d="M9.24428 8.97512C9.19404 8.81524 9.29929 8.73819 9.34358 8.69038C11.7903 6.0488 13.3454 2.52938 12.193 1.37695C11.0467 0.230726 7.63583 1.83118 4.99497 4.2603C4.94273 4.30842 4.83975 4.39954 4.65553 4.36108L3.83274 4.16516C3.60429 4.11083 3.28151 4.20214 3.11546 4.36819L0.0963837 7.38723C-0.0696663 7.55332 -0.0157171 7.71903 0.216283 7.75545L2.39988 8.0986C2.63188 8.1351 2.95755 8.02906 3.12356 7.86297C3.12356 7.86297 3.23623 7.75 3.34943 7.86316C3.97395 8.48761 5.13448 9.64814 5.72948 10.2432C5.84775 10.3614 5.73447 10.4739 5.73447 10.4739C5.56839 10.64 5.46238 10.9656 5.49888 11.1976L5.84199 13.3812C5.87845 13.6132 6.04416 13.6672 6.21021 13.5011L9.22932 10.482C9.39533 10.3159 9.48669 9.99322 9.43228 9.76478L9.24428 8.97512ZM8.56834 5.07468C8.05698 4.56332 8.05698 3.73432 8.56834 3.22303C9.07967 2.71167 9.90867 2.71167 10.4201 3.22303C10.9314 3.73428 10.9314 4.56332 10.4201 5.07465C9.90867 5.58601 9.07963 5.58601 8.56834 5.07468Z" fill="white"/>
</svg>
