<svg width="13" height="12" viewBox="0 0 13 12" fill="none" xmlns="http://www.w3.org/2000/svg">
<path d="M6.31603 0.355489C6.37355 0.325952 6.43209 0.298463 6.49153 0.27307L6.75567 0.399399L12.5162 3.41531L6.77967 6.37371L6.77023 6.37858L6.76123 6.38424C6.68218 6.43392 6.5907 6.46028 6.49734 6.46028C6.40397 6.46028 6.3125 6.43392 6.23345 6.38424L6.22476 6.37878L6.21565 6.37405C5.05955 5.77352 3.90113 5.17472 2.74219 4.57566C1.97929 4.18132 1.21617 3.78685 0.453345 3.39171C0.449331 3.3895 0.445322 3.38728 0.441321 3.38505L6.31586 0.355581C6.31592 0.35555 6.31598 0.355519 6.31603 0.355489Z" stroke="#212121" stroke-width="0.5"/>
<path d="M1.40346 8.80842C1.07947 8.642 0.755644 8.47567 0.432003 8.30936C0.430377 8.30823 0.428754 8.30711 0.427132 8.30598C0.761814 8.11732 1.00178 7.98256 1.20065 7.89226C1.40135 7.80113 1.54017 7.76501 1.66855 7.76283C1.79721 7.76064 1.93947 7.79213 2.1477 7.87723C2.35912 7.96364 2.61773 8.09619 2.98106 8.28324L2.98115 8.28329C3.19766 8.39464 3.41416 8.50555 3.63055 8.6164C4.34645 8.98315 5.06106 9.34924 5.76994 9.72805C5.98546 9.8551 6.2311 9.92214 6.48135 9.92214C6.7316 9.92214 6.97725 9.8551 7.19276 9.72805C7.79209 9.40778 8.39542 9.09741 9.00149 8.78563L9.0472 8.76212C9.66967 8.4419 10.2949 8.11994 10.9178 7.78578L10.9284 7.78009L10.9384 7.77341C11.0322 7.71081 11.1424 7.67741 11.2551 7.67741C11.3679 7.67741 11.4781 7.71081 11.5719 7.77341L11.5718 7.77353L11.5791 7.77804C11.8982 7.97562 12.2337 8.13062 12.5698 8.2802C12.5643 8.28352 12.5588 8.28681 12.5532 8.29009C12.1142 8.52139 11.6738 8.75016 11.234 8.97866L11.2238 8.98394C10.7793 9.21484 10.3354 9.44548 9.89528 9.67751C9.55344 9.85463 9.2101 10.0319 8.86656 10.2093C8.17829 10.5647 7.48928 10.9205 6.81027 11.276L6.80275 11.2799L6.79551 11.2843C6.70659 11.3389 6.60431 11.3678 6.5 11.3678C6.39569 11.3678 6.29341 11.3389 6.20449 11.2843L6.1969 11.2797L6.18899 11.2756C4.58999 10.4452 2.99461 9.6257 1.40346 8.80842Z" stroke="#212121" stroke-width="0.5"/>
<path d="M2.90655 5.78476L2.90689 5.78494C3.12399 5.89646 3.34075 6.00727 3.55715 6.11791C4.31339 6.50453 5.06517 6.88887 5.81117 7.29267C6.01594 7.41592 6.25047 7.48108 6.48956 7.48108C6.72868 7.48108 6.96324 7.4159 7.16803 7.29263C7.76983 6.96633 8.37927 6.65331 8.98951 6.33988L9.05727 6.30508C9.69097 5.97957 10.3251 5.65314 10.9465 5.313L10.9563 5.30765L10.9655 5.30145C11.0489 5.24562 11.147 5.21582 11.2473 5.21582C11.3477 5.21582 11.4458 5.24562 11.5292 5.30145L11.5291 5.30157L11.5363 5.30607C11.8509 5.5015 12.1863 5.66814 12.5084 5.82823C12.5167 5.83237 12.525 5.83649 12.5333 5.84062C10.5709 6.84994 8.61194 7.86437 6.65636 8.88392L6.65625 8.8837L6.64668 8.88924C6.59433 8.91955 6.54288 8.94153 6.48479 8.96489L6.21386 8.82943L0.453772 5.85631C0.450799 5.85446 0.447831 5.85261 0.444865 5.85076C0.450611 5.84687 0.456374 5.84302 0.462155 5.83918C0.794262 5.64712 1.03016 5.5111 1.22445 5.42053C1.41666 5.33093 1.54794 5.29587 1.66778 5.29303C1.78766 5.29018 1.92063 5.31897 2.11724 5.39937C2.31721 5.48115 2.56162 5.60691 2.90655 5.78476Z" stroke="#212121" stroke-width="0.5"/>
</svg>
