<svg width="11" height="11" viewBox="0 0 11 11" fill="none" xmlns="http://www.w3.org/2000/svg">
<path d="M0 6.15213V4.7452C0.681135 4.47721 0.820712 4.54421 0.820712 5.25326C0.820712 5.72782 0.977038 5.81156 1.43485 5.75573C2.63521 5.58824 3.84674 5.45983 5.05827 5.35933C5.2261 5.35522 5.38857 5.29938 5.52347 5.19945C5.65838 5.09952 5.75914 4.96038 5.81198 4.80103C6.20838 3.94682 6.63828 3.1261 7.05701 2.27189C7.57065 1.21669 7.56507 1.23344 6.42054 0.842626C6.23071 0.775629 5.97947 0.513225 5.98506 0.351316C5.98506 -0.000418235 6.32004 -0.0506659 6.60478 0.0386633C7.13264 0.182901 7.64796 0.369613 8.14571 0.596971C9.16332 1.15284 9.9785 2.01704 10.4741 3.06535C10.9696 4.11366 11.1201 5.2921 10.9037 6.43129C10.6533 7.60925 10.0287 8.67467 9.12315 9.46855C8.21758 10.2624 7.07959 10.7422 5.87898 10.8363C4.71627 10.9506 3.5485 10.676 2.55846 10.0557C1.56842 9.43545 0.811987 8.5044 0.407565 7.40832C0.267988 6.98401 0.139577 6.55411 0 6.15213Z" fill="#6338BC"/>
</svg>
