<svg width="25" height="24" viewBox="0 0 25 24" fill="none" xmlns="http://www.w3.org/2000/svg">
<path d="M20.0656 12.3501C18.5224 8.27014 13.0281 8.05014 14.355 2.12014C14.4533 1.68014 13.9914 1.34014 13.6179 1.57014C10.05 3.71014 7.4847 8.00014 9.63721 13.6201C9.81413 14.0801 9.28337 14.5101 8.90005 14.2101C7.12104 12.8401 6.93429 10.8701 7.09155 9.46014C7.15052 8.94014 6.48217 8.69014 6.19713 9.12014C5.52877 10.1601 4.85059 11.8401 4.85059 14.3701C5.22408 19.9701 9.8731 21.6901 11.544 21.9101C13.9324 22.2201 16.5174 21.7701 18.375 20.0401C20.4194 18.1101 21.1664 15.0301 20.0656 12.3501ZM10.9444 17.3801C12.3598 17.0301 13.0871 15.9901 13.2837 15.0701C13.608 13.6401 12.3401 12.2401 13.1952 9.98014C13.5196 11.8501 16.4093 13.0201 16.4093 15.0601C16.4879 17.5901 13.7948 19.7601 10.9444 17.3801Z" fill="#FBB500"/>
</svg>
