<svg width="15" height="12" viewBox="0 0 15 12" fill="none" xmlns="http://www.w3.org/2000/svg">
<path d="M15 6.41334C14.9449 6.58738 14.8347 6.72661 14.7061 6.84844C13.1445 8.32777 11.6013 9.7897 10.0398 11.269C10.0031 11.3038 9.92958 11.3387 9.92958 11.4083C9.98469 11.4431 10.0398 11.4257 10.0949 11.4257C11.2339 11.4257 12.3729 11.4257 13.5119 11.4257C13.7324 11.4257 13.8794 11.5301 13.861 11.7215C13.861 11.8608 13.7508 11.9826 13.6038 12C13.5487 12 13.4936 12 13.4385 12C9.10288 12 4.7673 12 0.431721 12C0.376608 12 0.321494 12 0.266381 12C0.119412 11.9826 0.00918555 11.8608 0.00918555 11.7041C0.00918555 11.5649 0.119412 11.4431 0.266381 11.4257C0.321494 11.4257 0.376608 11.4257 0.431721 11.4257C1.3319 11.4257 2.23209 11.4257 3.13227 11.4257C3.18739 11.4257 3.2425 11.4257 3.29761 11.4257C3.27924 11.3561 3.22413 11.3212 3.18739 11.2864C2.21372 10.3814 1.25842 9.47643 0.303123 8.57143C-0.101041 8.18854 -0.101041 7.77085 0.303123 7.38796C2.80159 5.02103 5.30006 2.6541 7.79853 0.287165C8.2027 -0.0957215 8.6436 -0.0957215 9.04777 0.287165C10.94 2.07977 12.8322 3.87237 14.7244 5.66497C14.853 5.7868 14.9449 5.90863 15 6.06527C15 6.16969 15 6.29152 15 6.41334ZM6.60441 11.4257C7.33925 11.4257 8.0741 11.4257 8.80894 11.4257C8.95591 11.4257 9.04777 11.3909 9.15799 11.2864C10.8665 9.66788 12.575 8.04931 14.2835 6.43075C14.3203 6.39594 14.3386 6.37854 14.3754 6.34373C14.4305 6.27411 14.4305 6.2045 14.3754 6.13488C14.3386 6.10007 14.3019 6.04786 14.2652 6.01305C12.3729 4.25526 10.5175 2.49746 8.6436 0.739666C8.62523 0.704859 8.60686 0.687455 8.58849 0.670051C8.44152 0.548223 8.38641 0.548223 8.25781 0.670051C5.74097 3.05439 3.22413 5.43872 0.725658 7.82306C0.57869 7.96229 0.57869 8.0145 0.725658 8.15374C1.42376 8.81508 2.12186 9.47643 2.83833 10.1378C3.26087 10.5381 3.68341 10.9384 4.10594 11.3387C4.17942 11.4083 4.27128 11.4431 4.38151 11.4431C5.09798 11.4257 5.85119 11.4257 6.60441 11.4257Z" fill="#212121"/>
</svg>
