<svg width="14" height="13" viewBox="0 0 14 13" fill="none" xmlns="http://www.w3.org/2000/svg">
<path d="M12.4043 6.65295L12.2333 6.75473V6.95371V11.7139C12.2333 12.0228 12.2287 12.2296 12.2071 12.3775C12.1857 12.5237 12.1551 12.5536 12.1503 12.5582C12.1433 12.5649 12.1059 12.5965 11.9476 12.6166C11.79 12.6365 11.5709 12.639 11.2482 12.6356L11.2483 12.6356H11.2445C10.8912 12.6356 10.5958 12.6403 10.3436 12.6444C10.0519 12.6491 9.81787 12.6529 9.61874 12.6473C9.43886 12.6422 9.31852 12.6296 9.23526 12.6097C9.15575 12.5907 9.13273 12.5703 9.12652 12.5642C9.10645 12.5443 9.05758 12.4689 9.04629 12.0943C9.04132 11.9292 9.043 11.7309 9.04511 11.4839L9.04536 11.4546C9.04754 11.1971 9.04979 10.8943 9.04446 10.5417C9.04458 10.362 9.05735 10.1617 9.0714 9.94382L9.07178 9.93787C9.08548 9.72553 9.10019 9.49744 9.10112 9.28006C9.10205 9.06204 9.08951 8.83595 9.04108 8.63069C8.99289 8.42642 8.90162 8.21063 8.72026 8.05102C8.54339 7.89537 8.3205 7.82645 8.11445 7.79348C7.90573 7.76009 7.67684 7.75803 7.45614 7.76504C7.29883 7.77003 7.14732 7.77896 7.00113 7.78758C6.70911 7.8048 6.43833 7.82076 6.18501 7.80156L6.17181 7.80056H6.15856C5.91287 7.80056 5.63089 7.83096 5.43514 8.03027C5.23869 8.23031 5.22088 8.50655 5.22772 8.72738V8.72784V8.7339V8.73995V8.74601V8.75206V8.75812V8.76417V8.77022V8.77627V8.78232V8.78837V8.79442V8.80047V8.80652V8.81257V8.81862V8.82466V8.83071V8.83675V8.8428V8.84884V8.85489V8.86093V8.86697V8.87302V8.87906V8.8851V8.89114V8.89718V8.90322V8.90926V8.9153V8.92134V8.92737V8.93341V8.93945V8.94548V8.95152V8.95756V8.96359V8.96962V8.97566V8.98169V8.98772V8.99376V8.99979V9.00582V9.01185V9.01788V9.02391V9.02994V9.03597V9.042V9.04803V9.05406V9.06008V9.06611V9.07214V9.07816V9.08419V9.09022V9.09624V9.10227V9.10829V9.11431V9.12034V9.12636V9.13238V9.13841V9.14443V9.15045V9.15647V9.16249V9.16851V9.17453V9.18055V9.18657V9.19259V9.19861V9.20463V9.21065V9.21667V9.22268V9.2287V9.23472V9.24073V9.24675V9.25277V9.25878V9.2648V9.27081V9.27683V9.28284V9.28886V9.29487V9.30088V9.3069V9.31291V9.31892V9.32494V9.33095V9.33696V9.34297V9.34898V9.35499V9.36101V9.36702V9.37303V9.37904V9.38505V9.39106V9.39707V9.40308V9.40909V9.4151V9.42111V9.42711V9.43312V9.43913V9.44514V9.45115V9.45715V9.46316V9.46917V9.47518V9.48118V9.48719V9.4932V9.4992V9.50521V9.51122V9.51722V9.52323V9.52924V9.53524V9.54125V9.54725V9.55326V9.55926V9.56527V9.57127V9.57728V9.58328V9.58929V9.59529V9.6013V9.6073V9.61331V9.61931V9.62531V9.63132V9.63732V9.64333V9.64933V9.65533V9.66134V9.66734V9.67335V9.67935V9.68535V9.69136V9.69736V9.70336V9.70937V9.71537V9.72137V9.72738V9.73338V9.73938V9.74539V9.75139V9.75739V9.7634V9.7694V9.7754V9.78141V9.78741V9.79342V9.79942V9.80542V9.81143V9.81743V9.82343V9.82944V9.83544V9.84144V9.84745V9.85345V9.85946V9.86546V9.87146V9.87747V9.88347V9.88948V9.89548V9.90149V9.90749V9.9135V9.9195V9.9255V9.93151V9.93752V9.94352V9.94953V9.95553V9.96154V9.96754V9.97355V9.97955V9.98556V9.99157V9.99757V10.0036V10.0096V10.0156V10.0216V10.0276V10.0336V10.0396V10.0456V10.0516V10.0576V10.0637V10.0697V10.0757V10.0817V10.0877V10.0937V10.0997V10.1057V10.1117V10.1177V10.1237V10.1298V10.1358V10.1418V10.1478V10.1538V10.1598V10.1658V10.1718V10.1779V10.1839V10.1899V10.1959V10.2019V10.2079V10.2139V10.2199V10.226V10.232V10.238V10.244V10.25V10.256V10.2621V10.2681V10.2741V10.2801V10.2861V10.2921V10.2982V10.3042V10.3102V10.3162V10.3222V10.3283V10.3343V10.3403V10.3463V10.3523V10.3584V10.3644V10.3704V10.3764V10.3825V10.3885V10.3945V10.4005V10.4066V10.4126V10.4186V10.4246V10.4307V10.4367V10.4427V10.4487V10.4548V10.4608V10.4668V10.4729V10.4789V10.4849V10.4909V10.497V10.503V10.509V10.5151V10.5211V10.5271V10.5332V10.5392V10.5452V10.5513V10.5573V10.5634V10.5694V10.5754V10.5815V10.5875V10.5935V10.5996V10.6056V10.6117V10.6177V10.6237V10.6298V10.6358V10.6419V10.6479V10.654V10.66V10.6661V10.6721V10.6781V10.6842V10.6902V10.6963V10.7023V10.7084V10.7144V10.7205V10.7265V10.7326V10.7386V10.7447V10.7508V10.7568V10.7629V10.7689V10.775V10.781V10.7871V10.7931V10.7992V10.8053V10.8113V10.8174V10.8234V10.8295V10.8356V10.8416V10.8477V10.8538V10.8598V10.8659V10.872V10.878V10.8841V10.8902V10.8962V10.9023V10.9084V10.9144V10.9205V10.9266V10.9327V10.9387V10.9448V10.9509V10.957V10.963V10.9691V10.9752V10.9813V10.9873V10.9934V10.9995V11.0056V11.0117V11.0178V11.0238V11.0299V11.036V11.0421V11.0482V11.0543V11.0604V11.0665V11.0725V11.0786V11.0847V11.0908V11.0969V11.103V11.1091V11.1152V11.1213V11.1274V11.1335V11.1396V11.1457V11.1518V11.1579V11.164V11.1701V11.1762V11.1823V11.1884V11.1945V11.2006V11.2068V11.2129V11.219V11.2251V11.2312V11.2373V11.2434V11.2495V11.2557V11.2618V11.2679V11.274V11.2801V11.2863V11.2924V11.2985V11.3046V11.3107V11.3169V11.323V11.3291V11.3353V11.3414V11.3475V11.3536V11.3598V11.3659V11.372V11.3782V11.3843V11.3905V11.3966V11.4027V11.4089V11.415V11.4212V11.4273V11.4334V11.4396V11.4457V11.4519V11.458V11.4642V11.4703V11.4765V11.4826V11.4888V11.4949V11.5011V11.5073V11.5134V11.5196V11.5257V11.5319V11.5381V11.5442V11.5504V11.5565V11.5627V11.5689V11.575V11.5812V11.5874V11.5936V11.5997V11.6059V11.6121V11.6183V11.6244V11.6306V11.6368V11.643V11.6492V11.6553V11.6615V11.6677V11.6739V11.6801V11.6863V11.6925V11.6987V11.7048V11.711V11.7172V11.7234V11.7296V11.7358V11.742V11.7482V11.7544V11.7606V11.7668V11.773V11.7792V11.7855V11.7917V11.7979V11.8041V11.8103V11.8165V11.8227C5.22772 12.0844 5.2167 12.2589 5.19266 12.3793C5.16941 12.4957 5.14098 12.5248 5.13301 12.5321C5.1228 12.5416 5.08794 12.568 4.96659 12.5874C4.84314 12.6071 4.67465 12.6135 4.42898 12.6152H2.94974C2.69269 12.6152 2.51605 12.605 2.39011 12.581C2.26744 12.5576 2.22692 12.5271 2.21118 12.5114C2.19573 12.496 2.16588 12.4569 2.143 12.3372C2.11941 12.2137 2.10971 12.0409 2.10971 11.7887V6.34848V5.39982L1.49358 6.12116C1.21409 6.44838 1.01361 6.56946 0.88396 6.59178C0.799701 6.60629 0.670607 6.59091 0.47399 6.34663C0.378891 6.22848 0.356172 6.1551 0.351317 6.11964C0.347448 6.09137 0.35121 6.06426 0.375065 6.023C0.40325 5.97425 0.454636 5.91531 0.539596 5.83971C0.599653 5.78627 0.661337 5.73717 0.731068 5.68167C0.763033 5.65623 0.796688 5.62944 0.832653 5.60027L0.838166 5.5958L0.843494 5.5911C1.50069 5.01237 2.16173 4.43502 2.82387 3.85672C4.05562 2.78093 5.29118 1.7018 6.5129 0.604168L6.53397 0.585229L6.55173 0.563146C6.6019 0.500757 6.66668 0.448668 6.74212 0.411495C6.8176 0.374305 6.9014 0.353235 6.98744 0.350344C7.07348 0.347452 7.15879 0.362844 7.2371 0.395003C7.31538 0.427149 7.38414 0.474991 7.43905 0.534198L7.45346 0.549737L7.46964 0.563424C9.5343 2.30999 11.5944 4.05221 13.65 5.79007V5.91149L12.4043 6.65295Z" stroke="#212121" stroke-width="0.7"/>
</svg>
