<svg width="24" height="23" viewBox="0 0 24 23" fill="none" xmlns="http://www.w3.org/2000/svg">
<mask id="path-1-inside-1_201_548" fill="white">
<path d="M6.17763 1.6702C11.8076 -1.46111 19.0066 0.39715 22.257 5.82073C25.5075 11.2443 23.5785 18.1794 17.9486 21.3107C12.3186 24.442 5.11962 22.5838 1.86916 17.1602C-1.3813 11.7366 0.547671 4.80151 6.17763 1.6702ZM15.6229 17.4301C19.0281 15.5362 20.1948 11.3416 18.2288 8.0612C16.2628 4.78081 11.9086 3.65687 8.50335 5.5508C5.09814 7.44473 3.93143 11.6393 5.89743 14.9197C7.86343 18.2001 12.2177 19.3241 15.6229 17.4301Z"/>
</mask>
<path d="M6.17763 1.6702C11.8076 -1.46111 19.0066 0.39715 22.257 5.82073C25.5075 11.2443 23.5785 18.1794 17.9486 21.3107C12.3186 24.442 5.11962 22.5838 1.86916 17.1602C-1.3813 11.7366 0.547671 4.80151 6.17763 1.6702ZM15.6229 17.4301C19.0281 15.5362 20.1948 11.3416 18.2288 8.0612C16.2628 4.78081 11.9086 3.65687 8.50335 5.5508C5.09814 7.44473 3.93143 11.6393 5.89743 14.9197C7.86343 18.2001 12.2177 19.3241 15.6229 17.4301Z" fill="#F7F7F7" stroke="#E0E0E0" stroke-width="2" mask="url(#path-1-inside-1_201_548)"/>
</svg>
