<svg width="38" height="37" viewBox="0 0 38 37" fill="none" xmlns="http://www.w3.org/2000/svg">
<mask id="path-1-inside-1_201_389" fill="white">
<path d="M8.5439 20.0525C7.41331 20.5849 6.01233 20.117 5.69172 18.9229C5.16246 16.9518 5.20321 14.8633 5.8329 12.8897C6.69179 10.1978 8.582 7.92148 11.1199 6.52287C13.6577 5.12425 16.653 4.70812 19.4978 5.35894C22.3426 6.00975 24.8237 7.67875 26.4375 10.0271C28.0512 12.3755 28.6767 15.2274 28.187 18.0037C27.6973 20.7801 26.129 23.273 23.8006 24.9763C21.4722 26.6797 18.558 27.4659 15.6497 27.1754C13.5196 26.9626 11.5095 26.1839 9.83355 24.9466C8.81616 24.1955 8.91745 22.7632 9.8711 21.9665V21.9665C10.8154 21.1776 12.2416 21.3305 13.3367 21.9439C14.1821 22.4174 15.1291 22.7184 16.119 22.8172C17.8781 22.993 19.6406 22.5174 21.049 21.4872C22.4573 20.4569 23.4058 18.9491 23.702 17.2699C23.9982 15.5906 23.6199 13.8657 22.6438 12.4453C21.6678 11.0249 20.1671 10.0155 18.4465 9.62184C16.7259 9.2282 14.9142 9.47989 13.3792 10.3258C11.8442 11.1718 10.7009 12.5485 10.1814 14.1767C9.89055 15.0884 9.80746 16.0407 9.92704 16.9708C10.0836 18.1885 9.67038 19.522 8.5439 20.0525V20.0525Z"/>
</mask>
<path d="M8.5439 20.0525C7.41331 20.5849 6.01233 20.117 5.69172 18.9229C5.16246 16.9518 5.20321 14.8633 5.8329 12.8897C6.69179 10.1978 8.582 7.92148 11.1199 6.52287C13.6577 5.12425 16.653 4.70812 19.4978 5.35894C22.3426 6.00975 24.8237 7.67875 26.4375 10.0271C28.0512 12.3755 28.6767 15.2274 28.187 18.0037C27.6973 20.7801 26.129 23.273 23.8006 24.9763C21.4722 26.6797 18.558 27.4659 15.6497 27.1754C13.5196 26.9626 11.5095 26.1839 9.83355 24.9466C8.81616 24.1955 8.91745 22.7632 9.8711 21.9665V21.9665C10.8154 21.1776 12.2416 21.3305 13.3367 21.9439C14.1821 22.4174 15.1291 22.7184 16.119 22.8172C17.8781 22.993 19.6406 22.5174 21.049 21.4872C22.4573 20.4569 23.4058 18.9491 23.702 17.2699C23.9982 15.5906 23.6199 13.8657 22.6438 12.4453C21.6678 11.0249 20.1671 10.0155 18.4465 9.62184C16.7259 9.2282 14.9142 9.47989 13.3792 10.3258C11.8442 11.1718 10.7009 12.5485 10.1814 14.1767C9.89055 15.0884 9.80746 16.0407 9.92704 16.9708C10.0836 18.1885 9.67038 19.522 8.5439 20.0525V20.0525Z" fill="#F7F7F7" stroke="#E0E0E0" stroke-width="2" mask="url(#path-1-inside-1_201_389)"/>
<g filter="url(#filter0_d_201_389)">
<path d="M16.5962 7.33016C16.5649 6.0733 17.6053 4.99563 18.8676 5.2159C20.2674 5.46017 21.6149 5.95341 22.8388 6.67711C24.7309 7.79599 26.2468 9.418 27.2036 11.3477C28.1605 13.2774 28.5176 15.4324 28.2319 17.553C27.9461 19.6737 27.0298 21.6696 25.5932 23.3001C24.1567 24.9306 22.2612 26.1263 20.1352 26.743C18.0092 27.3597 15.7434 27.3711 13.6109 26.7758C11.4783 26.1806 9.56995 25.0041 8.11576 23.3881C7.18861 22.3578 6.4713 21.1769 5.99313 19.9074C5.54507 18.7178 6.48001 17.5239 7.77509 17.3487V17.3487C9.03073 17.1789 10.1441 18.0516 10.7244 19.1396C10.9733 19.6063 11.2804 20.0451 11.6408 20.4456C12.5057 21.4068 13.6408 22.1066 14.9093 22.4606C16.1778 22.8147 17.5255 22.8079 18.79 22.4411C20.0545 22.0743 21.182 21.3631 22.0364 20.3933C22.8909 19.4234 23.436 18.2363 23.6059 16.9749C23.7759 15.7135 23.5635 14.4317 22.9943 13.2839C22.4252 12.1361 21.5235 11.1713 20.3981 10.5058C19.9164 10.221 19.4026 9.99622 18.8689 9.83461C17.679 9.47437 16.6267 8.55348 16.5962 7.33016V7.33016Z" fill="#009F42"/>
</g>
<defs>
<filter id="filter0_d_201_389" x="0.879395" y="0.187256" width="36.4482" height="36.0269" filterUnits="userSpaceOnUse" color-interpolation-filters="sRGB">
<feFlood flood-opacity="0" result="BackgroundImageFix"/>
<feColorMatrix in="SourceAlpha" type="matrix" values="0 0 0 0 0 0 0 0 0 0 0 0 0 0 0 0 0 0 127 0" result="hardAlpha"/>
<feMorphology radius="1" operator="dilate" in="SourceAlpha" result="effect1_dropShadow_201_389"/>
<feOffset dx="2" dy="2"/>
<feGaussianBlur stdDeviation="3"/>
<feColorMatrix type="matrix" values="0 0 0 0 0 0 0 0 0 0.623529 0 0 0 0 0.258824 0 0 0 0.31 0"/>
<feBlend mode="normal" in2="BackgroundImageFix" result="effect1_dropShadow_201_389"/>
<feBlend mode="normal" in="SourceGraphic" in2="effect1_dropShadow_201_389" result="shape"/>
</filter>
</defs>
</svg>
