<svg width="13" height="13" viewBox="0 0 13 13" fill="none" xmlns="http://www.w3.org/2000/svg">
<path d="M7.73664 10.8514L7.73665 10.8514C6.69885 9.87494 5.65822 8.89942 4.61476 7.92477C4.56013 7.87403 4.41807 7.73826 4.42561 7.52987C4.43302 7.32481 4.5813 7.1994 4.63231 7.15625L4.63247 7.15612L4.63286 7.15578C4.89523 6.93454 5.14501 6.70073 5.38122 6.45532L5.38623 6.45011L5.38628 6.45016C5.4236 6.41296 5.45043 6.37019 5.46651 6.32547C5.48256 6.28084 5.48795 6.23424 5.48282 6.18844L5.48243 6.18489L5.48245 6.18488C5.47 6.06235 5.42216 5.98474 5.35458 5.93147C5.28096 5.87346 5.15436 5.82208 4.95442 5.81649L4.95432 5.81649C4.65122 5.80793 4.34573 5.80115 4.03901 5.79434C3.42079 5.78062 2.79755 5.76679 2.17872 5.73802L2.17862 5.73801C2.02217 5.7307 1.8496 5.72723 1.67137 5.72366C1.40313 5.71828 1.12206 5.71264 0.863848 5.69321L0.852048 5.69232L0.85207 5.69212C0.766115 5.68273 0.679773 5.69662 0.603757 5.73097C0.527864 5.76527 0.467351 5.81755 0.426789 5.87876L0.41976 5.88937L0.419572 5.88923C0.365612 5.96456 0.346347 6.05903 0.350621 6.23989C0.353414 6.27161 0.356767 6.30598 0.360291 6.3421C0.370452 6.44627 0.382037 6.56502 0.385737 6.67699M7.73664 10.8514L0.495722 10.037L0.145892 10.0479L0.495717 10.0369C0.460788 8.9169 0.424128 7.79695 0.385737 6.67699M7.73664 10.8514L7.73867 10.8532M7.73664 10.8514L7.73867 10.8532M0.385737 6.67699C0.38574 6.67707 0.385742 6.67714 0.385745 6.67722L0.0359347 6.68875L0.385729 6.67676C0.385732 6.67684 0.385734 6.67691 0.385737 6.67699ZM7.73867 10.8532C7.74798 10.8619 7.75654 10.8699 7.76441 10.8775C7.75681 10.8848 7.74856 10.8927 7.7396 10.901L7.7396 10.901L7.73837 10.9021L5.96563 12.566C5.96555 12.5661 5.96546 12.5662 5.96538 12.5662C5.96537 12.5662 5.96537 12.5662 5.96536 12.5662C5.94131 12.5888 5.92108 12.6068 5.9038 12.6212C5.88786 12.6078 5.86929 12.5912 5.8474 12.5706L5.84685 12.5701C4.81482 11.6059 3.78654 10.639 2.76201 9.66948C2.68672 9.5909 2.59324 9.53349 2.49153 9.50056L2.36856 9.46076L2.24924 9.51043C2.20669 9.52814 2.16219 9.54469 2.11651 9.55997L2.04576 9.58364L1.99081 9.63409L1.96675 9.65619L1.96657 9.656M7.73867 10.8532L1.96657 9.656M1.96657 9.656L1.95707 9.66542L1.96657 9.656ZM1.50503 10.5712L1.26553 10.316C1.26552 10.316 1.26552 10.316 1.26551 10.316L1.50503 10.5712Z" stroke="#212121" stroke-width="0.7"/>
<path d="M10.928 2.67201L10.9277 2.67228C10.8787 2.71767 10.8301 2.76235 10.782 2.80659C10.5904 2.98283 10.4065 3.15197 10.2321 3.32998L10.2312 3.33091C10.1637 3.39932 10.0281 3.52322 9.82891 3.52204C9.63636 3.52091 9.50181 3.40229 9.43533 3.33887C8.40724 2.36744 7.37616 1.39894 6.3421 0.433397L6.34147 0.43281C6.31541 0.408355 6.29449 0.389976 6.27779 0.376221C6.26258 0.388856 6.24374 0.40544 6.22058 0.427128C6.22053 0.427181 6.22047 0.427235 6.22041 0.427288L4.43563 2.10287C4.43561 2.10289 4.43559 2.10291 4.43558 2.10292C4.42893 2.10917 4.42271 2.11511 4.41689 2.12075C4.42395 2.12764 4.4316 2.13496 4.43987 2.14274L10.928 2.67201ZM10.928 2.67201C11.0133 2.5929 11.0914 2.55471 11.1613 2.5402C11.23 2.52593 11.3139 2.5297 11.4202 2.57103C11.526 2.61215 11.5847 2.66394 11.6195 2.7143C11.6549 2.76552 11.6814 2.83818 11.6852 2.94507C11.694 3.20324 11.7006 3.46489 11.7073 3.72834C11.7206 4.25601 11.7341 4.79093 11.7658 5.31962C11.776 5.49163 11.7779 5.66132 11.78 5.84036C11.7807 5.9006 11.7814 5.96191 11.7824 6.02471C11.7863 6.26242 11.795 6.51378 11.8299 6.76879C11.8364 6.93892 11.8183 7.02993 11.7714 7.09853L11.7673 7.10454L11.7635 7.11071C11.724 7.17405 11.6635 7.22863 11.5865 7.26471C11.5094 7.30086 11.4212 7.3158 11.3332 7.30638L11.3332 7.30616L11.3208 7.30528C11.0851 7.28845 10.8512 7.28248 10.6243 7.27805C10.5868 7.27731 10.5495 7.27662 10.5124 7.27594C10.3229 7.27243 10.139 7.26902 9.95474 7.26056C9.35225 7.23247 8.74488 7.21871 8.14237 7.20507C7.83168 7.19804 7.52227 7.19103 7.2155 7.18211L7.21533 7.1821C7.02029 7.17652 6.901 7.12753 6.83157 7.07253C6.76746 7.02174 6.71637 6.943 6.69858 6.8088L6.69858 6.8088L6.69827 6.80658C6.69188 6.76067 6.69707 6.71369 6.71407 6.66894C6.73112 6.62405 6.76014 6.58131 6.80079 6.5453L6.8009 6.54543L6.80891 6.53787C6.87538 6.47515 6.94056 6.41306 7.00508 6.35162C7.18787 6.17753 7.36526 6.00858 7.55098 5.84485L7.55138 5.8445M10.928 2.67201L7.55138 5.8445M7.55138 5.8445C7.58586 5.81401 7.63022 5.7718 7.66771 5.71928C7.70703 5.6642 7.75087 5.58093 7.75592 5.47302C7.76586 5.26023 7.6202 5.12098 7.56291 5.06773L7.55138 5.8445Z" stroke="#212121" stroke-width="0.7"/>
</svg>
