<svg width="21" height="20" viewBox="0 0 21 20" fill="none" xmlns="http://www.w3.org/2000/svg">
<g clip-path="url(#clip0_0_16)">
<path opacity="0.3" d="M4.66667 15.8333H16.3333V4.16667H4.66667V15.8333ZM11.3583 5.88333L12.2417 5L13.4167 6.175L14.5917 5L15.475 5.88333L14.3 7.05833L15.475 8.23333L14.5917 9.11667L13.4167 7.95L12.2417 9.125L11.3583 8.24167L12.5333 7.06667L11.3583 5.88333ZM11.3333 11.0417H15.5V12.2917H11.3333V11.0417ZM11.3333 13.125H15.5V14.375H11.3333V13.125ZM5.70833 6.43333H9.875V7.68333H5.70833V6.43333ZM5.5 12.0833H7.16667V10.4167H8.41667V12.0833H10.0833V13.3333H8.41667V15H7.16667V13.3333H5.5V12.0833Z" fill="#005AD1"/>
<path d="M16.3333 2.5H4.66667C3.75 2.5 3 3.25 3 4.16667V15.8333C3 16.75 3.75 17.5 4.66667 17.5H16.3333C17.25 17.5 18 16.75 18 15.8333V4.16667C18 3.25 17.25 2.5 16.3333 2.5ZM16.3333 15.8333H4.66667V4.16667H16.3333V15.8333Z" fill="#005AD1"/>
<path d="M9.875 6.43333H5.70833V7.68333H9.875V6.43333Z" fill="#005AD1"/>
<path d="M15.5 13.125H11.3333V14.375H15.5V13.125Z" fill="#005AD1"/>
<path d="M15.5 11.0417H11.3333V12.2917H15.5V11.0417Z" fill="#005AD1"/>
<path d="M7.16667 15H8.41667V13.3333H10.0833V12.0833H8.41667V10.4167H7.16667V12.0833H5.5V13.3333H7.16667V15Z" fill="#005AD1"/>
<path d="M12.2417 9.125L13.4167 7.95L14.5917 9.125L15.475 8.24167L14.3 7.05833L15.475 5.88333L14.5917 5L13.4167 6.175L12.2417 5L11.3583 5.88333L12.5333 7.05833L11.3583 8.24167L12.2417 9.125Z" fill="#005AD1"/>
</g>
<defs>
<clipPath id="clip0_0_16">
<rect width="20" height="20" fill="white" transform="translate(0.5)"/>
</clipPath>
</defs>
</svg>
