<svg width="19" height="18" viewBox="0 0 19 18" fill="none" xmlns="http://www.w3.org/2000/svg">
<path d="M12.9759 10.2561C12.8042 10.1796 12.6039 10.2088 12.4636 10.3348L9.81821 12.6892C9.69895 12.7957 9.64045 12.9547 9.66295 13.113L10.089 16.0877C10.1145 16.2662 10.2495 16.4042 10.4212 16.4612C10.467 16.4762 10.5143 16.4837 10.5623 16.4837C10.6943 16.4837 10.8263 16.429 10.92 16.3352C12.4269 14.8284 13.2564 12.8235 13.2564 10.6911C13.2579 10.5028 13.1477 10.3326 12.9759 10.2561V10.2561Z" fill="#48C6FF"/>
<path d="M7.39447 4.83521C5.26583 4.83521 3.26619 5.66326 1.76233 7.16637L1.73983 7.18887C1.61232 7.31638 1.56807 7.50464 1.62507 7.67565C1.68208 7.84667 1.83059 7.97117 2.0091 7.99668L4.97706 8.42196C4.99956 8.42571 5.02206 8.42721 5.04456 8.42721C5.17957 8.42721 5.30933 8.3702 5.40009 8.26744L7.74925 5.62801C7.87376 5.48775 7.90451 5.28749 7.82801 5.11647C7.7515 4.94546 7.58199 4.83521 7.39447 4.83521V4.83521Z" fill="#48C6FF"/>
<path d="M9.14994 13.7976C9.01718 13.7976 8.88442 13.7466 8.78316 13.6453L4.44186 9.30401C4.24759 9.10975 4.23859 8.79698 4.4216 8.59221L7.67533 4.94771C9.98024 2.25052 13.7208 0.489398 17.021 0.559903C17.2978 0.566654 17.5213 0.789419 17.5273 1.06619C17.6038 4.34842 15.8367 8.10768 13.1305 10.4193L9.49421 13.6656C9.3967 13.7541 9.27294 13.7976 9.14994 13.7976Z" fill="#DEF5FF"/>
<path d="M12.9412 6.73786C12.5339 6.73786 12.1274 6.58335 11.8176 6.27358C11.1988 5.65404 11.1988 4.64597 11.8176 4.02643C12.4372 3.40688 13.4452 3.40688 14.0648 4.02643C14.6836 4.64597 14.6836 5.65404 14.0648 6.27358C13.755 6.5826 13.3477 6.73786 12.9412 6.73786Z" fill="#FBB500"/>
<path d="M0.914773 17.6789C0.783514 17.6789 0.655255 17.6271 0.559998 17.5319C0.429489 17.4014 0.381485 17.2094 0.433989 17.0323C0.602001 16.4691 1.47881 13.6256 2.16211 12.9416C2.96092 12.1435 4.35226 12.1435 5.14957 12.9416C5.5486 13.3406 5.76836 13.8709 5.76836 14.4357C5.76836 14.9997 5.5486 15.53 5.14957 15.929C4.46552 16.6131 1.62132 17.4891 1.05878 17.6571C1.01153 17.6721 0.962776 17.6789 0.914773 17.6789V17.6789Z" fill="#48C6FF"/>
<path d="M8.99932 14.3626C8.85531 14.3626 8.7113 14.3071 8.60179 14.1976L3.89222 9.48798C3.68145 9.27722 3.6717 8.9382 3.87046 8.71543L7.40021 4.7619C9.90014 1.83595 13.9459 -0.0721865 17.5402 0.00131867C17.8402 0.00806914 18.0825 0.250336 18.0892 0.550357C18.1717 4.11161 16.2553 8.18964 13.3196 10.6978L9.3751 14.2193C9.26709 14.3153 9.13358 14.3626 8.99932 14.3626V14.3626ZM5.06305 9.06795L9.02107 13.026L12.5786 9.85026C15.128 7.67211 16.8374 4.23462 16.9589 1.13015C13.8552 1.25241 10.4184 2.96103 8.24702 5.50145L5.06305 9.06795Z" fill="#005AD1"/>
<path d="M10.4025 17.0464C10.3463 17.0464 10.29 17.0381 10.2368 17.0201C10.0343 16.9526 9.87525 16.7899 9.84525 16.5791L9.34271 13.0711C9.29846 12.7636 9.51223 12.4786 9.81975 12.4343C10.1235 12.3886 10.4123 12.6038 10.4565 12.9113L10.7851 15.205C11.8756 13.7627 12.4569 12.033 12.4569 10.2142C12.4569 9.90363 12.7089 9.65161 13.0195 9.65161C13.33 9.65161 13.582 9.90363 13.582 10.2142C13.582 12.7298 12.6032 15.094 10.8263 16.8709C10.7146 16.9811 10.5578 17.0464 10.4025 17.0464Z" fill="#005AD1"/>
<path d="M5.10123 8.75238C5.07423 8.75238 5.04797 8.75088 5.02097 8.74638L1.51298 8.24384C1.30146 8.21384 1.1252 8.06608 1.05844 7.86282C0.991689 7.65955 1.04569 7.43679 1.19795 7.28603C2.99808 5.4859 5.36225 4.50708 7.87792 4.50708C8.18844 4.50708 8.44046 4.7591 8.44046 5.06962C8.44046 5.38014 8.18844 5.63216 7.87792 5.63216C6.05004 5.63216 4.31367 6.2187 2.88257 7.30328L5.18073 7.63255C5.48825 7.6768 5.70202 7.96107 5.65777 8.26934C5.61726 8.54986 5.3765 8.75238 5.10123 8.75238V8.75238Z" fill="#005AD1"/>
<path d="M12.9414 7.02166C12.4606 7.02166 11.9806 6.83864 11.6153 6.47337C10.8847 5.74207 10.8847 4.55248 11.6153 3.82118C12.3466 3.08988 13.5362 3.08988 14.2675 3.82118C14.998 4.55248 14.998 5.74207 14.2675 6.47337C13.9015 6.83939 13.4214 7.02166 12.9414 7.02166ZM12.9414 4.39797C12.7494 4.39797 12.5566 4.47073 12.4104 4.61699C12.1178 4.90951 12.1178 5.38504 12.4104 5.67831C12.7021 5.97083 13.1792 5.97083 13.4709 5.67831C13.7634 5.38579 13.7634 4.91026 13.4709 4.61774C13.3254 4.47073 13.1334 4.39797 12.9414 4.39797Z" fill="#005AD1"/>
<path d="M0.652999 18.0006C0.505989 18.0006 0.361978 17.9429 0.255471 17.8356C0.109211 17.6894 0.0552068 17.4748 0.114461 17.2761C0.302724 16.6453 1.28454 13.4591 2.0511 12.6933C2.94591 11.7992 4.50452 11.7992 5.39783 12.6933C5.84486 13.141 6.09088 13.7351 6.09088 14.3674C6.09088 14.9997 5.84486 15.5937 5.39783 16.0407C4.63203 16.8065 1.44505 17.7884 0.81501 17.9774C0.761757 17.9931 0.707003 18.0006 0.652999 18.0006V18.0006ZM3.72447 13.126C3.40644 13.126 3.08842 13.2468 2.84615 13.4891C2.51913 13.8161 1.95584 15.2622 1.51781 16.5733C2.8289 16.1352 4.275 15.572 4.60203 15.2449C5.08656 14.7604 5.08656 13.9728 4.60203 13.4891C4.35976 13.2468 4.04249 13.126 3.72447 13.126V13.126Z" fill="#005AD1"/>
</svg>
